<?xml version="1.0" standalone="no"?>
<!DOCTYPE svg PUBLIC "-//W3C//DTD SVG 20010904//EN"
 "http://www.w3.org/TR/2001/REC-SVG-20010904/DTD/svg10.dtd">
<svg version="1.0" xmlns="http://www.w3.org/2000/svg"
 width="512.000000pt" height="512.000000pt" viewBox="0 0 512.000000 512.000000"
 preserveAspectRatio="xMidYMid meet">
<metadata>
Created by potrace 1.11, written by Peter Selinger 2001-2013
</metadata>
<g transform="translate(0.000000,512.000000) scale(0.100000,-0.100000)"
fill="#000000" stroke="none">
<path d="M2486 5021 c-3 -4 -19 -7 -36 -6 -16 1 -30 -3 -30 -9 0 -6 -4 -5 -9
3 -6 9 -10 10 -16 2 -5 -9 -11 -9 -23 1 -11 10 -16 10 -19 1 -2 -7 -11 -9 -19
-6 -8 3 -22 -1 -31 -8 -14 -12 -16 -12 -8 1 8 13 7 13 -8 1 -14 -11 -17 -11
-17 0 0 10 -3 10 -11 2 -6 -6 -18 -9 -25 -6 -8 3 -14 -1 -14 -8 0 -11 -3 -11
-10 1 -5 8 -10 10 -10 3 0 -6 -9 -9 -21 -6 -12 4 -25 0 -30 -8 -8 -12 -11 -12
-19 1 -5 8 -10 10 -10 4 0 -10 -6 -12 -47 -15 -10 -1 -24 -7 -32 -13 -12 -9
-13 -8 -6 3 6 11 5 12 -6 5 -8 -4 -18 -9 -24 -10 -5 -1 -32 -7 -58 -13 -27 -6
-53 -8 -59 -5 -6 4 -8 2 -5 -3 6 -10 -13 -18 -68 -29 -11 -2 -21 -8 -23 -14
-2 -5 -8 -10 -13 -10 -6 0 -7 6 -3 13 5 7 1 6 -10 -3 -17 -13 -31 -18 -68 -22
-9 -1 -16 -6 -15 -11 2 -8 -12 -13 -60 -19 -7 -1 -13 -6 -13 -11 0 -5 -7 -6
-15 -3 -9 3 -18 -1 -22 -10 -3 -8 -12 -13 -19 -10 -8 3 -14 1 -14 -4 0 -6 -9
-10 -20 -10 -11 0 -20 -4 -20 -10 0 -5 -9 -10 -20 -10 -11 0 -20 -4 -20 -10 0
-5 -7 -10 -15 -10 -8 0 -15 -5 -15 -11 0 -5 -4 -8 -9 -4 -5 3 -26 -6 -46 -20
-21 -13 -42 -22 -48 -18 -5 3 -7 2 -4 -4 3 -5 -7 -17 -24 -27 -16 -9 -29 -14
-29 -10 0 4 -7 -1 -16 -12 -8 -10 -13 -12 -9 -4 4 8 -3 4 -15 -10 -12 -14 -19
-18 -15 -10 4 8 -3 5 -14 -8 -11 -13 -25 -21 -31 -17 -5 3 -10 -1 -10 -10 0
-9 -4 -14 -9 -11 -4 3 -18 -6 -31 -19 -13 -13 -26 -22 -30 -20 -5 3 -11 -2
-14 -11 -3 -8 -11 -12 -17 -8 -8 4 -9 3 -5 -5 4 -6 0 -14 -10 -18 -10 -4 -25
-13 -34 -20 -8 -7 -24 -20 -35 -29 -11 -8 -13 -13 -5 -9 8 4 6 0 -5 -9 -11 -8
-26 -20 -32 -26 -7 -6 -16 -11 -20 -12 -13 -3 -113 -109 -113 -120 0 -5 -4 -7
-9 -3 -6 3 -15 -4 -21 -15 -6 -11 -16 -17 -22 -14 -7 4 -8 3 -4 -4 4 -7 2 -12
-4 -12 -6 0 -8 -4 -5 -10 3 -5 1 -10 -5 -10 -6 0 -8 -4 -5 -10 3 -5 2 -10 -3
-10 -5 0 -22 -12 -38 -26 -16 -15 -22 -23 -14 -19 8 5 3 -5 -12 -21 -15 -16
-39 -41 -52 -56 -13 -15 -27 -24 -32 -20 -4 4 -4 1 0 -6 4 -6 0 -19 -8 -28 -9
-8 -16 -22 -16 -30 0 -9 -5 -12 -12 -8 -8 5 -9 2 -4 -11 5 -15 4 -16 -9 -5 -9
7 -15 9 -14 4 4 -23 -2 -45 -11 -39 -6 4 -7 -1 -3 -11 5 -14 3 -16 -11 -11
-11 5 -15 3 -10 -5 4 -6 -2 -18 -12 -26 -15 -12 -16 -14 -2 -9 12 4 15 2 11
-9 -3 -8 -11 -13 -17 -11 -7 3 -13 -4 -13 -16 -1 -11 -7 -23 -14 -27 -6 -4 -8
-13 -5 -19 5 -7 2 -10 -6 -9 -8 2 -12 -4 -10 -14 2 -10 -2 -18 -8 -18 -5 0
-10 -5 -10 -11 0 -7 -8 -18 -17 -26 -11 -9 -12 -11 -3 -7 11 6 10 2 -3 -13 -9
-11 -14 -23 -10 -26 3 -4 1 -7 -6 -7 -7 0 -9 -4 -6 -10 3 -5 1 -10 -4 -10 -6
0 -10 -3 -10 -7 1 -5 0 -11 -1 -15 -1 -5 -3 -14 -4 -20 -1 -7 -7 -12 -13 -11
-6 1 -9 -6 -5 -19 3 -14 1 -19 -6 -14 -8 4 -10 2 -6 -7 3 -8 1 -18 -5 -21 -6
-4 -7 -14 -4 -23 4 -11 3 -14 -5 -9 -8 4 -12 0 -12 -12 0 -10 -3 -22 -7 -26
-4 -3 -8 -16 -10 -28 -2 -12 -8 -27 -14 -35 -6 -7 -8 -13 -4 -13 4 0 2 -6 -4
-13 -6 -8 -8 -16 -5 -20 3 -3 -2 -17 -11 -31 -10 -14 -14 -26 -10 -26 4 0 3
-6 -2 -12 -6 -7 -9 -21 -8 -30 2 -10 -1 -18 -7 -18 -6 0 -8 -9 -5 -20 3 -11 1
-23 -5 -26 -5 -3 -7 -12 -4 -20 3 -8 1 -14 -3 -14 -5 0 -8 -11 -6 -25 1 -14
-1 -25 -4 -25 -4 0 -8 -16 -9 -36 -2 -20 -7 -44 -11 -53 -5 -9 -7 -26 -5 -39
2 -13 1 -21 -4 -18 -4 2 -7 -8 -6 -22 1 -15 -3 -32 -8 -39 -5 -7 -5 -14 2 -18
6 -3 8 -11 5 -16 -15 -22 -25 -110 -13 -103 4 3 8 0 8 -5 0 -6 -4 -11 -10 -11
-5 0 -7 -7 -4 -15 4 -8 1 -22 -5 -29 -7 -8 -8 -17 -3 -20 10 -6 9 -67 -2 -84
-3 -6 -2 -13 4 -17 5 -3 10 -11 10 -16 0 -6 -5 -7 -12 -3 -7 5 -8 3 -3 -5 4
-7 8 -32 9 -55 2 -24 6 -48 10 -54 4 -7 2 -12 -4 -12 -6 0 -8 -5 -4 -12 11
-18 12 -48 2 -48 -4 0 -8 -5 -8 -11 0 -5 5 -7 10 -4 7 4 9 -3 6 -19 -3 -16 0
-26 7 -26 8 0 7 -3 -2 -9 -11 -7 -11 -9 0 -13 12 -4 11 -8 -1 -23 -8 -10 -10
-16 -3 -12 7 5 12 1 12 -10 3 -55 7 -83 13 -83 4 0 5 -6 2 -14 -3 -8 -1 -17 4
-20 5 -3 8 -17 7 -31 -2 -14 2 -25 8 -25 7 0 5 -5 -3 -10 -8 -5 -10 -10 -4
-10 11 0 12 -3 17 -55 2 -17 7 -36 11 -43 4 -7 4 -12 0 -12 -4 0 0 -8 8 -17
13 -16 16 -28 20 -80 1 -7 5 -13 9 -13 4 0 10 -7 13 -16 4 -9 2 -13 -5 -8 -6
3 -4 -5 5 -18 9 -14 13 -28 9 -31 -3 -4 -1 -7 5 -7 6 0 9 -7 6 -15 -4 -8 -1
-15 7 -15 7 0 9 -3 6 -7 -4 -3 0 -17 8 -29 8 -13 16 -32 18 -43 2 -10 8 -25
13 -33 23 -28 28 -41 13 -33 -8 5 -6 0 4 -12 10 -12 15 -27 11 -37 -4 -11 -2
-16 7 -14 8 2 13 -3 12 -9 -2 -7 2 -13 8 -13 5 0 8 -4 4 -9 -3 -5 2 -16 11
-25 8 -9 16 -25 17 -35 0 -11 4 -18 7 -16 3 2 12 -5 19 -17 8 -13 9 -18 1 -13
-8 5 -7 0 1 -13 7 -12 17 -18 21 -16 4 3 8 -4 8 -16 0 -14 4 -19 12 -14 8 5 7
0 -2 -11 -8 -10 -10 -16 -5 -13 12 7 37 -17 28 -26 -4 -3 -1 -6 6 -6 8 0 11
-7 7 -15 -3 -8 0 -14 7 -12 7 1 11 -4 10 -10 -2 -7 1 -13 6 -13 5 0 16 -16 25
-35 9 -19 20 -35 25 -35 4 0 18 -14 30 -31 13 -18 17 -29 10 -25 -8 4 -6 1 3
-7 10 -8 14 -17 10 -21 -4 -4 -1 -6 6 -4 8 2 19 -6 25 -17 7 -11 18 -24 24
-28 7 -4 13 -15 13 -23 0 -9 5 -12 12 -8 7 5 9 2 5 -9 -4 -11 -2 -14 9 -10 8
3 14 -1 14 -9 0 -7 11 -22 25 -32 14 -11 23 -26 21 -33 -4 -8 -1 -11 5 -7 12
7 51 -30 42 -40 -4 -3 1 -6 10 -6 8 0 19 -9 22 -21 4 -12 12 -18 21 -15 7 3
13 0 11 -6 -1 -7 8 -17 21 -23 12 -5 22 -16 22 -23 0 -7 5 -10 10 -7 6 3 10
-1 10 -9 0 -8 5 -18 12 -22 7 -5 8 -3 3 7 -8 12 -6 12 8 0 9 -7 14 -17 11 -22
-3 -5 2 -9 10 -9 8 0 26 -11 39 -24 14 -14 28 -22 31 -19 3 4 6 -1 6 -11 0 -9
5 -14 10 -11 6 3 13 -1 16 -9 3 -9 10 -13 15 -10 5 3 12 -2 15 -10 3 -9 11
-13 17 -9 6 4 8 0 5 -9 -4 -8 0 -15 8 -15 7 0 10 5 7 10 -3 6 -1 7 5 3 7 -4
12 -14 12 -22 0 -8 4 -13 9 -9 5 3 16 -1 24 -9 8 -8 17 -12 21 -9 3 3 8 -2 12
-11 3 -9 10 -14 14 -11 4 3 11 -2 14 -11 3 -8 10 -13 14 -10 5 3 19 -4 30 -15
12 -11 22 -17 22 -14 0 3 9 1 20 -5 11 -6 18 -15 15 -20 -3 -6 1 -7 11 -3 10
4 20 0 26 -10 5 -10 18 -17 28 -17 10 0 22 -5 25 -10 4 -6 11 -8 16 -5 5 4 9
-1 9 -9 0 -10 6 -13 15 -10 8 4 15 1 15 -5 0 -6 7 -8 15 -5 8 4 15 1 15 -5 0
-6 3 -10 8 -10 19 3 33 -2 27 -11 -3 -6 1 -7 10 -4 8 4 21 1 29 -5 7 -6 16 -8
19 -4 4 3 7 -2 7 -13 0 -16 2 -17 10 -4 8 12 10 12 10 1 0 -8 3 -12 6 -8 4 3
21 -1 38 -10 17 -10 35 -16 39 -15 4 1 21 -5 38 -14 18 -9 28 -11 24 -4 -6 10
31 -6 45 -20 5 -5 32 -10 68 -12 12 0 22 -3 22 -7 0 -6 26 -11 68 -14 6 0 12
-3 12 -7 0 -3 10 -6 23 -7 12 0 36 -4 52 -8 17 -4 45 -7 62 -7 18 0 31 -3 29
-7 -3 -4 13 -6 35 -5 21 1 39 -2 39 -6 0 -5 8 -7 18 -5 9 1 23 -3 31 -9 11 -8
13 -8 8 1 -8 13 30 12 51 -1 7 -4 12 -3 12 2 0 11 50 3 68 -11 8 -6 12 -6 12
3 0 9 4 9 17 -1 11 -10 14 -10 9 -1 -4 6 -3 12 3 12 5 0 13 -5 16 -10 4 -7 13
-6 26 1 14 7 24 7 32 0 8 -6 18 -6 27 -1 9 6 20 4 29 -3 12 -9 13 -9 7 1 -4 6
-3 12 3 12 5 0 11 -6 14 -12 3 -10 7 -10 19 -1 8 7 18 10 21 6 4 -3 7 -1 7 6
0 8 5 9 18 2 10 -5 23 -6 30 -3 6 4 32 7 57 7 25 -1 45 2 45 5 0 4 16 6 35 5
19 0 35 2 35 5 0 3 15 5 33 4 17 0 37 2 42 5 12 7 35 12 55 13 8 0 20 5 27 10
7 6 14 5 18 -2 5 -8 11 -8 20 0 8 7 19 9 25 5 5 -3 10 -1 10 5 0 7 7 10 15 6
8 -3 15 -1 15 5 0 6 7 9 15 5 8 -3 15 -1 15 3 0 5 9 7 20 4 12 -3 20 0 20 7 0
7 7 10 15 6 8 -3 15 -1 15 4 0 5 6 7 14 4 8 -3 17 0 21 5 3 6 11 9 16 6 5 -4
9 -2 9 3 0 5 7 9 15 10 8 1 22 3 30 4 8 1 15 5 15 10 0 5 5 6 10 3 6 -3 10 0
10 7 0 9 3 9 10 -2 7 -11 10 -11 10 -2 0 7 5 10 10 7 6 -3 10 -1 10 5 0 6 5 8
10 5 6 -3 10 -1 10 4 0 6 7 11 16 11 9 0 38 11 64 24 27 13 51 22 54 19 3 -4
6 -1 6 6 0 7 5 9 10 6 6 -3 10 -1 10 5 0 6 5 8 10 5 6 -3 10 -1 10 5 0 6 5 8
10 5 6 -3 10 -1 10 5 0 6 5 8 10 5 6 -3 13 1 16 9 3 9 10 14 14 11 5 -3 15 1
22 9 8 7 24 17 36 20 12 4 22 12 22 17 0 6 5 7 10 4 6 -3 10 -1 10 5 0 6 5 8
10 5 6 -3 10 -1 10 6 0 7 3 9 6 6 4 -4 15 3 25 15 11 11 19 18 19 14 0 -3 18
6 40 20 22 15 40 31 40 35 0 5 3 8 8 7 13 -2 42 14 37 22 -5 8 32 23 48 21 5
-1 6 3 2 9 -3 5 -2 10 3 10 5 0 20 10 34 23 14 12 35 28 46 36 12 8 19 18 16
23 -3 4 2 8 10 8 8 0 22 10 30 22 9 12 16 19 16 15 0 -4 19 12 42 35 24 24 42
46 41 50 -2 5 2 8 7 8 6 0 24 13 39 29 16 16 32 27 36 23 4 -4 6 -2 5 3 -5 23
1 35 17 35 9 0 14 3 10 6 -8 9 16 33 27 26 5 -3 6 0 2 6 -3 6 2 15 11 21 10 6
14 11 9 11 -5 0 4 12 20 26 16 15 22 23 14 18 -8 -4 -3 5 11 22 68 75 102 118
83 104 -11 -8 -7 -3 9 11 16 15 24 28 19 30 -5 2 0 13 11 24 11 11 16 14 12 6
-5 -9 -4 -12 3 -7 6 3 9 15 7 26 -2 11 1 19 8 17 7 -1 11 6 9 16 -2 9 3 17 9
17 7 0 9 3 6 7 -4 3 0 11 8 17 8 6 16 21 18 32 1 12 11 29 20 38 9 10 17 22
17 27 0 6 5 7 12 3 6 -4 8 -3 4 4 -3 6 -2 13 4 17 6 4 8 10 5 15 -7 12 5 41
15 35 5 -3 7 6 5 20 -1 14 2 25 6 25 5 0 9 7 9 16 0 9 8 23 18 31 10 9 11 12
2 7 -12 -5 -12 -4 -3 6 6 7 9 19 6 26 -3 8 -1 14 5 14 9 0 27 47 24 62 -1 5 3
8 9 8 5 0 7 5 4 10 -3 6 -2 10 4 10 6 0 8 7 5 15 -4 8 -1 15 6 15 6 0 8 5 5
10 -4 6 -1 17 5 25 7 8 9 15 6 15 -4 0 -1 10 5 22 7 13 14 32 16 43 4 29 11
60 14 60 1 0 3 9 4 20 5 35 10 50 20 57 6 5 5 8 -4 8 -11 0 -11 3 -1 15 6 8 9
19 6 24 -4 5 -2 12 2 15 5 3 9 16 8 28 -1 13 5 29 14 36 8 8 10 11 3 8 -9 -5
-10 4 -6 31 4 21 7 45 7 53 1 8 6 18 11 22 6 5 5 8 -3 8 -8 0 -10 5 -5 13 4 6
9 43 10 81 1 44 7 72 15 77 7 5 9 9 3 9 -5 0 -10 13 -11 30 -1 16 3 27 7 24 5
-3 6 2 3 11 -11 27 -11 89 -1 109 6 13 6 16 -2 12 -13 -9 -14 4 -1 24 5 9 5
19 -2 27 -13 17 -16 60 -6 91 6 17 5 21 -4 16 -8 -5 -9 -2 -4 11 4 11 2 22 -6
27 -10 6 -10 10 2 18 9 5 10 10 3 10 -6 0 -10 11 -8 25 1 14 -2 25 -6 25 -5 0
-9 5 -9 11 0 5 4 7 10 4 7 -4 7 3 0 20 -6 15 -8 30 -5 35 3 5 -1 11 -7 13 -10
4 -10 6 0 6 10 1 10 5 -2 16 -8 9 -13 22 -9 30 3 9 -1 23 -8 32 -12 14 -12 16
1 8 13 -8 13 -6 2 8 -8 9 -11 21 -7 27 3 5 1 10 -5 10 -6 0 -9 4 -6 8 3 5 -1
26 -9 47 -7 22 -11 48 -10 58 2 9 0 15 -6 12 -5 -4 -9 8 -9 24 0 17 -5 31 -11
31 -7 0 -9 10 -7 25 3 14 -1 30 -8 36 -8 6 -14 22 -14 36 0 13 -4 22 -9 19 -5
-3 -11 3 -14 14 -3 13 -1 18 6 13 8 -4 8 -2 0 9 -7 8 -9 19 -5 23 4 5 2 5 -4
2 -11 -6 -21 15 -30 63 -2 8 -8 16 -13 18 -6 2 -11 12 -11 21 0 10 -9 30 -20
44 -11 14 -20 35 -20 46 0 12 -6 24 -14 27 -9 3 -12 12 -9 21 4 10 2 14 -4 10
-6 -4 -14 3 -18 16 -4 12 -8 25 -10 30 -1 4 -3 12 -4 18 0 5 -5 7 -11 4 -5 -3
-12 6 -16 20 -3 14 -10 25 -16 25 -5 0 -6 5 -3 10 3 6 1 10 -4 10 -6 0 -11 7
-11 15 0 7 -8 19 -17 24 -11 6 -13 11 -5 11 7 0 -2 15 -20 34 -18 18 -34 39
-36 47 -2 7 -14 23 -27 35 -13 12 -21 25 -18 28 4 3 1 6 -5 6 -7 0 -12 5 -12
11 0 5 -27 36 -59 68 -44 43 -57 61 -48 70 8 8 5 11 -11 11 -14 0 -22 6 -22
16 0 10 -5 14 -16 10 -8 -3 -13 -2 -10 3 3 5 -1 12 -10 15 -9 4 -14 13 -10 21
3 8 2 14 -2 14 -21 -3 -32 3 -32 18 0 9 -3 14 -6 10 -8 -8 -34 18 -34 33 0 6
-4 8 -10 5 -5 -3 -10 -1 -10 4 0 6 -7 11 -16 11 -10 0 -14 5 -10 16 3 8 2 12
-4 9 -12 -8 -93 73 -85 85 3 5 0 7 -8 4 -8 -3 -24 5 -36 17 -15 16 -21 18 -21
8 0 -12 -2 -12 -10 1 -5 8 -10 20 -10 25 0 6 5 3 10 -5 8 -13 10 -12 10 3 0
14 -5 17 -19 12 -11 -3 -22 -1 -25 4 -4 6 -14 8 -24 5 -9 -3 -6 1 7 9 20 12
21 15 7 20 -10 4 -15 3 -11 -3 10 -16 -21 -11 -35 5 -7 9 -19 14 -27 11 -8 -4
-13 3 -14 17 0 21 -1 21 -9 2 -8 -19 -9 -19 -9 3 -1 13 -5 20 -11 17 -5 -3
-10 -2 -10 3 0 5 -7 9 -15 10 -8 1 -22 3 -30 4 -10 1 -12 5 -5 13 8 9 4 12
-15 10 -14 -2 -25 1 -25 7 0 6 -7 7 -16 4 -8 -3 -12 -2 -9 4 3 5 -4 14 -15 20
-11 6 -20 7 -20 3 0 -4 -4 -2 -9 5 -4 7 -17 14 -29 15 -11 0 -18 5 -16 9 3 4
-2 8 -10 8 -9 0 -16 4 -16 10 0 5 -7 7 -15 4 -8 -4 -15 -1 -15 6 0 6 -4 8 -10
5 -5 -3 -10 -2 -10 3 0 5 -6 9 -12 10 -26 2 -88 27 -88 35 0 5 -4 6 -9 2 -5
-3 -15 0 -23 7 -7 7 -24 15 -37 16 -13 2 -31 10 -38 18 -19 19 -29 18 -13 -1
11 -13 10 -14 -4 -9 -9 3 -16 10 -16 15 0 4 -6 6 -14 3 -8 -3 -17 0 -22 7 -5
8 -3 10 6 4 8 -5 11 -4 6 3 -4 6 -13 9 -21 5 -9 -3 -23 1 -32 8 -14 12 -16 12
-8 -1 8 -13 7 -13 -8 -1 -9 7 -17 10 -17 6 0 -5 -10 0 -22 11 -12 10 -18 13
-14 7 4 -7 2 -13 -3 -13 -6 0 -11 3 -11 8 0 4 -14 8 -31 9 -17 1 -38 8 -47 15
-13 11 -14 11 -7 -2 6 -12 5 -12 -5 -3 -7 6 -19 9 -28 6 -8 -4 -13 -2 -9 3 3
6 -9 9 -29 9 -19 -1 -34 1 -34 4 0 3 -10 7 -22 7 -73 4 -108 10 -108 18 0 5
-7 3 -15 -4 -12 -10 -16 -9 -21 4 -4 11 -11 13 -22 8 -20 -10 -33 -9 -49 1 -8
5 -13 4 -13 -2 0 -6 -5 -11 -11 -11 -5 0 -8 4 -5 8 3 5 -9 6 -26 4 -23 -3 -29
-1 -23 8 6 9 3 9 -13 1 -14 -8 -23 -8 -27 -1 -5 8 -11 8 -20 0 -10 -8 -15 -8
-20 0 -5 8 -10 8 -20 0 -10 -8 -14 -7 -18 2 -4 10 -6 10 -6 1 -1 -9 -8 -10
-26 -3 -13 5 -27 6 -29 1z m1609 -541 c3 -6 -1 -7 -9 -4 -18 7 -21 14 -7 14 6
0 13 -4 16 -10z"/>
<path d="M3935 4621 c-3 -5 -2 -12 3 -15 5 -3 9 1 9 9 0 17 -3 19 -12 6z"/>
<path d="M4120 4466 c0 -2 8 -10 18 -17 15 -13 16 -12 3 4 -13 16 -21 21 -21
13z"/>
</g>
</svg>
